<svg width="90" height="18" viewBox="0 0 90 18" fill="none" xmlns="http://www.w3.org/2000/svg">
<path d="M12.8555 5.24304C14.3688 6.22445 16.2458 7.51398 16.0845 9.31015C15.9511 10.7961 14.5061 11.672 13.2476 12.4729L6.69048 16.6462C5.46839 17.424 3.95814 18.1684 2.59403 17.6801C0.809217 17.0412 0.518942 14.7821 0.519308 12.8865L0.520827 5.00477C0.521114 3.51372 0.783138 1.71768 1.98233 0.831889C3.62951 -0.384809 5.76574 0.644912 7.48424 1.75945L12.8555 5.24304Z" fill="#00A0AF"/>
<path d="M37.478 5.24304C38.9913 6.22445 40.8683 7.51398 40.707 9.31015C40.5736 10.7961 39.1286 11.672 37.8701 12.4729L31.313 16.6462C30.0909 17.424 28.5806 18.1684 27.2165 17.6801C25.4317 17.0412 25.1414 14.7821 25.1418 12.8865L25.1433 5.00477C25.1436 3.51372 25.4056 1.71768 26.6048 0.831889C28.252 -0.384809 30.3882 0.644912 32.1067 1.75945L37.478 5.24304Z" fill="#99D9DF"/>
<path d="M62.478 5.24304C63.9913 6.22445 65.8683 7.51398 65.707 9.31015C65.5736 10.7961 64.1286 11.672 62.8701 12.4729L56.313 16.6462C55.0909 17.424 53.5806 18.1684 52.2165 17.6801C50.4317 17.0412 50.1414 14.7821 50.1418 12.8865L50.1433 5.00477C50.1436 3.51372 50.4056 1.71768 51.6048 0.831889C53.252 -0.384809 55.3882 0.644912 57.1067 1.75945L62.478 5.24304Z" fill="#99D9DF" fill-opacity="0.6"/>
<path d="M86.478 5.24304C87.9913 6.22445 89.8683 7.51398 89.707 9.31015C89.5736 10.7961 88.1286 11.672 86.8701 12.4729L80.313 16.6462C79.0909 17.424 77.5806 18.1684 76.2165 17.6801C74.4317 17.0412 74.1414 14.7821 74.1418 12.8865L74.1433 5.00477C74.1436 3.51372 74.4056 1.71768 75.6048 0.831889C77.252 -0.384809 79.3882 0.644912 81.1067 1.75945L86.478 5.24304Z" fill="#C4C4C4" fill-opacity="0.15"/>
</svg>
